/vscmnt/brussel_pixiu_data/_data_brussel/112/vsc11236/PredSimResults/SUBJ07opt3D/expIG/worker_14.mot
version=1
nRows=11
nColumns=50
inDegrees=yes
endheader
                time	         pelvis_tilt	         pelvis_list	     pelvis_rotation	           pelvis_tx	           pelvis_ty	           pelvis_tz	       hip_flexion_r	     hip_adduction_r	      hip_rotation_r	        knee_angle_r	       ankle_angle_r	         mtp_angle_r	       hip_flexion_l	     hip_adduction_l	      hip_rotation_l	        knee_angle_l	       ankle_angle_l	         mtp_angle_l	    lumbar_extension	      lumbar_bending	     lumbar_rotation	 ercspn_r/activation	 intobl_r/activation	 extobl_r/activation	    abd_r/activation	    add_r/activation	hamstrings_r/activation	bifemsh_r/activation	glut_max_r/activation	iliopsoas_r/activation	rect_fem_r/activation	  vasti_r/activation	gastroc_r/activation	 soleus_r/activation	tib_ant_r/activation	 ercspn_l/activation	 intobl_l/activation	 extobl_l/activation	    abd_l/activation	    add_l/activation	hamstrings_l/activation	bifemsh_l/activation	glut_max_l/activation	iliopsoas_l/activation	rect_fem_l/activation	  vasti_l/activation	gastroc_l/activation	 soleus_l/activation	tib_ant_l/activation	
          1.57583828	         -9.32770284	          0.05383693	        -14.34828910	          2.99409272	          0.81642218	          0.01749518	         -7.45374166	         -0.95985945	         12.24922833	        -22.47953541	          8.31091050	         38.01730789	         41.61782304	         -7.76968056	         -7.17649261	        -11.97477261	          0.28045123	          0.26927625	        -12.50390264	          2.22872312	         -0.09066013	          0.16238975	          0.00999999	          0.00999999	          0.04197306	          0.06111873	          0.05109554	          0.33903030	          0.01898333	          0.00999999	          0.01622618	          0.06301234	          0.15862320	          0.29924511	          0.01815142	          0.16599441	          0.09083382	          0.00999999	          0.00999999	          0.10708671	          0.06242520	          0.20429936	          0.16277429	          0.06932136	          0.01811776	          0.00999999	          0.02420019	          0.01175092	          0.39292772	
          1.58634386	         -9.20680490	          0.04996919	        -14.56910045	          3.01902175	          0.81622834	          0.01693770	         -9.10150956	         -1.48344723	         11.91052182	        -22.09673523	          5.34515647	         38.93122760	         41.63398169	         -7.71365763	         -7.33457896	        -15.38378948	          0.09960713	          0.23635826	        -12.17339761	          1.96374865	          0.08820156	          0.15484297	          0.00999999	          0.00999999	          0.03571892	          0.08723101	          0.04348212	          0.28851356	          0.01615474	          0.09787864	          0.01380842	          0.05362327	          0.13498777	          0.25465651	          0.01544679	          0.14298018	          0.07729925	          0.00999999	          0.00999999	          0.10161514	          0.06829476	          0.17385801	          0.25046294	          0.05899223	          0.01541815	          0.00999999	          0.02059427	          0.00999999	          0.46777567	
          1.59684945	         -9.08246096	          0.00815656	        -14.72904697	          3.04382444	          0.81610230	          0.01630862	        -10.40395901	         -1.88506876	         11.55728117	        -22.35301732	          2.53144631	         39.00281850	         41.63501697	         -7.66473058	         -7.45667200	        -18.74778003	         -0.06645862	          0.21204857	        -11.87954015	          1.73138760	          0.24748016	          0.18657662	          0.00999999	          0.00999999	          0.03039667	          0.12959059	          0.03700313	          0.24552399	          0.01380842	          0.33523757	          0.01175092	          0.04563321	          0.11487410	          0.21671176	          0.01314516	          0.17445536	          0.06578138	          0.00999999	          0.06289470	          0.17097070	          0.06197205	          0.14795254	          0.33402992	          0.05020217	          0.01312079	          0.00999999	          0.01752565	          0.00999999	          0.50662628	
          1.60735504	         -8.95329102	         -0.06001422	        -14.83321628	          3.06829492	          0.81621219	          0.01563600	        -11.21228257	         -2.14414911	         11.26443557	        -23.45826178	         -0.23677844	         38.37975845	         41.66550837	         -7.60664376	         -7.51313531	        -22.16504810	          0.06557436	          0.17329626	        -11.64091709	          1.50956891	          0.38359369	          0.25519159	          0.00999999	          0.00999999	          0.02586746	          0.16744719	          0.03148953	          0.20894002	          0.01175092	          0.54324976	          0.00999999	          0.03883370	          0.09775744	          0.18442092	          0.01118648	          0.20013516	          0.05597971	          0.00999999	          0.11941738	          0.23700317	          0.05636395	          0.12590707	          0.42865952	          0.04272187	          0.01116574	          0.00999999	          0.01491427	          0.00999999	          0.44636234	
          1.61786063	         -8.81493800	         -0.13107342	        -14.88042739	          3.09234733	          0.81671253	          0.01492550	        -11.42793203	         -2.26347803	         11.09466743	        -25.51531035	         -3.11050417	         37.14998276	         41.70753816	         -7.49098621	         -7.42768835	        -25.63740780	          0.73766796	          0.15137989	        -11.45143545	          1.27354304	          0.49047136	          0.35702003	          0.00999999	          0.00999999	          0.02201311	          0.17909472	          0.02679748	          0.17780720	          0.00999999	          0.51709319	          0.02240583	          0.03304733	          0.08319123	          0.15694154	          0.00999999	          0.23791410	          0.04763853	          0.00999999	          0.17134583	          0.28417236	          0.04796552	          0.10714646	          0.48970829	          0.03635615	          0.00999999	          0.00999999	          0.01269199	          0.04234733	          0.37985273	
          1.62836622	         -8.66389090	         -0.19239675	        -14.87430113	          3.11606946	          0.81766844	          0.01419590	        -11.08934592	         -2.25935680	         11.07020079	        -28.36301648	         -6.29252573	         35.35042245	         41.67647815	         -7.29058022	         -7.20707724	        -29.05605181	          2.15260574	          0.27625122	        -11.27551375	          1.01970130	          0.57528156	          0.45797965	          0.00999999	          0.00999999	          0.01873308	          0.15240896	          0.02280456	          0.15131328	          0.00999999	          0.44004443	          0.01906728	          0.02812316	          0.07079543	          0.13355668	          0.00999999	          0.24564466	          0.04054022	          0.00999999	          0.22780646	          0.30618855	          0.04081848	          0.09118125	          0.48974453	          0.03093895	          0.00999999	          0.02897934	          0.01080084	          0.12024304	          0.32325329	
          1.63887181	         -8.50380543	         -0.24209950	        -14.81199009	          3.13956381	          0.81909697	          0.01344866	        -10.30286273	         -2.14491098	         11.16435434	        -31.69988253	         -9.98795414	         32.98955086	         41.47299032	         -7.00278607	         -6.91796245	        -32.20748742	          4.01768144	          0.75097259	        -11.07597506	          0.76289209	          0.64541191	          0.46344379	          0.01030490	          0.00999999	          0.01594178	          0.12969947	          0.01940660	          0.12876706	          0.01000000	          0.37447621	          0.01622619	          0.02393271	          0.06024666	          0.11365625	          0.00999999	          0.21257420	          0.03449958	          0.00999999	          0.24129456	          0.29360203	          0.03473638	          0.07759491	          0.42725888	          0.02632894	          0.00999999	          0.05874751	          0.00999999	          0.15903254	          0.27508738	
          1.64937739	         -8.34710614	         -0.27781345	        -14.69877881	          3.16283847	          0.82095505	          0.01269092	         -9.16114985	         -1.92749135	         11.34310828	        -35.30281659	        -13.91528313	         29.71888153	         40.98837923	         -6.63488854	         -6.63210678	        -34.77532110	          5.70712677	          1.64349088	        -10.83538008	          0.51323306	          0.70814696	          0.48832159	          0.06034689	          0.00999999	          0.02240583	          0.11037378	          0.01651495	          0.15741211	          0.00999999	          0.31867790	          0.01380843	          0.02036665	          0.05126969	          0.09672105	          0.11933792	          0.18089988	          0.02935902	          0.00999999	          0.28656346	          0.24985427	          0.05465581	          0.06603299	          0.36359575	          0.02240583	          0.00999999	          0.22422460	          0.00999999	          0.20907917	          0.23409836	
          1.65988298	         -8.21133825	         -0.29647383	        -14.53895544	          3.18576688	          0.82334435	          0.01193243	         -7.73900960	         -1.61023270	         11.52493893	        -39.10630151	        -16.37111454	         25.96307537	         40.06137336	         -6.18625087	         -6.40873755	        -36.40975786	          7.07684654	          2.89451117	        -10.55929552	          0.27958299	          0.75580426	          0.45667809	          0.05135499	          0.00999999	          0.01906728	          0.09392769	          0.04272188	          0.16582513	          0.00999999	          0.27119374	          0.01175092	          0.01733194	          0.04363032	          0.08230927	          0.13446075	          0.15394514	          0.02498442	          0.00999999	          0.32037600	          0.21262507	          0.06717503	          0.05619383	          0.30941867	          0.01906728	          0.00999999	          0.37137949	          0.07292745	          0.25371539	          0.19921686	
          1.67038857	         -8.10839895	         -0.28800677	        -14.33316814	          3.20813511	          0.82655016	          0.01119721	         -6.03993577	         -1.21478461	         11.64701844	        -43.00948686	        -17.21447788	         22.70242172	         38.70214373	         -5.66266430	         -6.25338269	        -37.08675221	          8.14570763	          4.39850808	        -10.27536389	          0.04356538	          0.78233306	          0.43028734	          0.04370291	          0.00999999	          0.01622619	          0.07993212	          0.03635617	          0.17176223	          0.00999999	          0.23078489	          0.00999999	          0.01474942	          0.06256949	          0.07004489	          0.20165028	          0.13100675	          0.02126165	          0.00999999	          0.33430630	          0.18094317	          0.09220420	          0.04782075	          0.26331416	          0.01622619	          0.00999999	          0.42847705	          0.11988567	          0.29338432	          0.16953282	
          1.68089416	         -8.04268905	         -0.26553425	        -14.08144700	          3.22980788	          0.83072300	          0.01048783	         -4.06543608	         -0.74970896	         11.67311293	        -46.89767508	        -17.20334513	         19.85136098	         37.04892616	         -5.09278055	         -6.10877091	        -37.00900714	          8.84610213	          6.02254523	        -10.01179128	         -0.18786045	          0.78996185	          0.39696740	          0.03719101	          0.00999999	          0.01380843	          0.06802194	          0.03093897	          0.20300964	          0.00999999	          0.19639710	          0.00999999	          0.01255170	          0.05532939	          0.05960794	          0.22278387	          0.11668397	          0.01809359	          0.00999999	          0.32307340	          0.15398198	          0.11280014	          0.04069528	          0.22407940	          0.01380843	          0.00999999	          0.37274398	          0.16486367	          0.32653615	          0.14427182	
